<svg width="700" height="700" xmlns="http://www.w3.org/2000/svg" stroke="null" style="vector-effect: non-scaling-stroke;">
 <title stroke="null">trainr2.svg</title>

 <g stroke="null">
  <title stroke="null">Layer 1</title>
  <g stroke="null" style="vector-effect: non-scaling-stroke;">
   <g stroke="null">
    <path fill="#645A73" stroke="null" clip-rule="evenodd" fill-rule="evenodd" d="m66.71134,529.59381l50.79163,0c-4.8327,-1.50793 -8.45722,-6.84367 -8.45722,-13.10736l0,-326.11812c0,-7.42364 5.07433,-13.51334 11.26018,-13.51334l457.36632,0c6.18585,0 11.26018,6.0897 11.26018,13.51334l0,326.06012c0,6.26369 -3.57619,11.59944 -8.45722,13.10736l53.73958,0c7.24904,0 13.19326,7.07566 13.19326,15.83323l0,0c0,8.69958 -5.89589,15.83323 -13.19326,15.83323l-567.50345,0c-7.24904,0 -13.19326,-7.07566 -13.19326,-15.83323l0,0c0,-8.69958 5.89589,-15.77523 13.19326,-15.77523l0,0l0,0zm131.35267,-289.11592l117.82112,0l0,169.58374c-0.24163,4.75577 -5.31597,4.87176 -10.82524,4.58178l-108.88063,0c-7.63566,0 -13.86984,7.48164 -13.86984,16.64519c0,9.16355 6.23418,16.64519 13.86984,16.64519l113.90664,0l0,-17.68914l10.82524,0l0,22.5029c0,4.1178 -2.80296,7.42364 -6.18585,7.42364l-118.01443,0c-13.72486,6.0897 -24.93671,-7.36564 -24.93671,-23.83684l0,-164.306c0.04833,-17.34116 11.8401,-31.55046 26.28986,-31.55046l0,0zm177.93985,210.64574c-3.91448,0 -7.10406,-4.1178 -7.10406,-9.16355s3.18958,-9.16355 7.10406,-9.16355l141.54966,0c3.91448,0 7.10406,4.1178 7.10406,9.16355s-3.18958,9.16355 -7.10406,9.16355l-141.54966,0l0,0zm-1.01487,-200.14825l155.95109,0c3.33456,0 6.0892,3.30584 6.0892,7.30764l0,26.09873c0,3.94381 -2.75464,7.30764 -6.0892,7.30764l-155.95109,0c-3.28623,0 -6.0892,-3.24784 -6.0892,-7.30764l0,-26.09873c0,-4.0598 2.75464,-7.30764 6.0892,-7.30764l0,0zm1.01487,97.72524c-3.91448,0 -7.10406,-4.1178 -7.10406,-9.16355c0,-5.04575 3.18958,-9.16355 7.10406,-9.16355l131.83594,0c3.91448,0 7.10406,4.1178 7.10406,9.16355c0,5.04575 -3.18958,9.16355 -7.10406,9.16355l-131.83594,0l0,0zm0,51.21151c-3.91448,0 -7.10406,-4.1178 -7.10406,-9.16355s3.18958,-9.16355 7.10406,-9.16355l111.29698,0c3.91448,0 7.10406,4.1178 7.10406,9.16355s-3.18958,9.16355 -7.10406,9.16355l-111.29698,0l0,0zm-173.05883,-134.78544l4.39775,0c2.22304,0 4.05946,1.79791 4.05946,3.94381l0,123.93996c0,2.1459 -1.83642,3.94381 -4.05946,3.94381l-4.39775,0c-2.22304,0 -4.05946,-1.79791 -4.05946,-3.94381l0,-123.93996c0,-2.20389 1.83642,-3.94381 4.05946,-3.94381l0,0zm-74.66515,-67.10273l442.91656,0l0,314.57668l-442.91656,0l0,-314.57668l0,0l0,0zm211.09215,337.48557l37.06678,0c3.47954,0 6.33083,3.42183 6.33083,7.59763l0,0c0,4.1758 -2.85129,7.59763 -6.33083,7.59763l-37.06678,0c-3.47954,0 -6.33083,-3.42183 -6.33083,-7.59763l0,0c0,-4.23379 2.85129,-7.59763 6.33083,-7.59763l0,0l0,0z" class="st0"/>
   </g>
  </g>
 </g>
</svg>